<svg xmlns="http://www.w3.org/2000/svg" width="619.321" height="120.624" viewBox="0 0 580.61365 113.08458"><g fill="#343434"><g style="line-height:125%;-inkscape-font-specification:'roboto, Normal';text-align:start" font-weight="400" font-size="21.244" font-family="roboto" letter-spacing="0" word-spacing="0"><path d="M145.312 4.99l16.155 40.32 16.155-40.32h8.45v49.416h-6.516V35.163l.611-20.771-16.222 40.014h-4.99l-16.188-39.912.644 20.669v19.243h-6.516V4.991h8.417zM204.57 54.406h-6.517V4.991h6.516v49.415zM254.426 54.406h-6.55l-24.878-38.08v38.08h-6.55V4.991h6.55l24.945 38.25V4.99h6.483v49.415zM272.99 54.406h-6.516V4.991h6.516v49.415zM293.286 4.99l16.155 40.32 16.155-40.32h8.45v49.416h-6.516V35.163l.611-20.771-16.223 40.014h-4.989l-16.188-39.912.644 20.669v19.243h-6.516V4.991h8.417zM373.518 41.51h-20.703l-4.65 12.896h-6.72l18.87-49.415h5.702l18.904 49.415h-6.686l-4.717-12.897zm-18.735-5.363h16.8l-8.417-23.113-8.383 23.113zM427.65 47.924q-2.511 3.597-7.025 5.396-4.48 1.765-10.453 1.765-6.041 0-10.725-2.817-4.684-2.851-7.263-8.078-2.545-5.226-2.613-12.116v-4.31q0-11.166 5.192-17.309 5.227-6.143 14.662-6.143 7.738 0 12.456 3.97 4.717 3.938 5.77 11.2h-6.517q-1.833-9.808-11.675-9.808-6.55 0-9.944 4.616-3.36 4.582-3.394 13.304v4.039q0 8.315 3.801 13.236 3.801 4.887 10.284 4.887 3.665 0 6.414-.814 2.75-.815 4.548-2.75V35.096H409.73V29.8h17.92v18.124zM466.476 31.565h-21.415v17.513h24.877v5.328h-31.393V4.991h31.054v5.362H445.06v15.884h21.415v5.328zM477.201 51.114q0-1.63.95-2.715.985-1.086 2.92-1.086 1.934 0 2.918 1.086 1.018 1.086 1.018 2.715 0 1.561-1.018 2.613-.984 1.052-2.919 1.052-1.934 0-2.919-1.052-.95-1.052-.95-2.613zM530.52 10.353h-15.884v44.053h-6.482V10.353h-15.85V4.991h38.215v5.362zM550.475 31.43l-6.04 6.278v16.698h-6.517V4.991h6.516v24.436L566.393 4.99h7.874L554.82 26.814l20.974 27.592h-7.806l-17.513-22.977z"/></g><path d="M3.543 3.543v98.996h105.772C89.47 84.464 86.63 66.82 86.84 53.225c.121-7.814.761-14.239-.23-18.754-.752-3.423-1.987-6.037-5.674-8.656-5.472 7.262-13.374 11.689-21.883 12.033-8.766.355-17.765-3.592-25.055-11.434-1.584 1.473-2.783 2.874-3.394 4.108-1.025 2.068-1.19 3.915-.77 6.297.842 4.763 4.855 11.136 8.895 17.75 4.04 6.613 8.601 13.9 6.785 22.482-.908 4.292-3.67 8.302-7.84 11.447-4.17 3.146-9.745 5.695-17.273 7.98a5.65 5.65 0 1 1-3.283-10.812c6.737-2.045 11.175-4.245 13.751-6.19 2.577-1.943 3.293-3.362 3.59-4.765.594-2.806-1.537-7.969-5.375-14.252-3.838-6.282-8.888-13.253-10.377-21.674-.744-4.21-.393-8.916 1.772-13.283 2.165-4.367 5.935-8.233 11.297-11.681a5.65 5.65 0 0 1 7.652 1.466c6.06 8.48 13.058 11.517 19.17 11.27 6.112-.247 11.824-3.746 15.488-10.914a5.65 5.65 0 0 1 4.8-3.072 5.65 5.65 0 0 1 2.735.58c9.418 4.655 14.434 11.646 16.026 18.896 1.592 7.25.6 14.26.49 21.354-.201 12.979.94 26.411 21.572 43.279V3.543H3.543z"/><g style="line-height:125%;-inkscape-font-specification:'roboto, Normal';text-align:start" font-weight="400" font-size="47.177" font-family="roboto" letter-spacing="0" word-spacing="0"><path d="M144.598 66.188l10.965 27.366 10.965-27.366h5.735v33.54h-4.422V86.667l.414-14.098-11.01 27.16h-3.387L142.87 72.637l.438 14.029v13.061h-4.423v-33.54h5.713zM184.035 99.728h-4.262V74.803h4.262v24.925zm-4.607-31.536q0-1.036.622-1.75.645-.715 1.888-.715 1.244 0 1.89.714.644.715.644 1.751 0 1.037-.645 1.728-.645.69-1.889.69-1.243 0-1.888-.69-.622-.691-.622-1.728zM194.861 74.803l.139 3.133q2.856-3.593 7.463-3.593 7.902 0 7.97 8.915v16.47h-4.261V83.234q-.023-2.695-1.244-3.985-1.198-1.29-3.755-1.29-2.073 0-3.64 1.106-1.566 1.106-2.441 2.903v17.76h-4.262V74.803h4.031zM221.537 99.728h-4.262V74.803h4.262v24.925zm-4.607-31.536q0-1.036.622-1.75.645-.715 1.889-.715t1.889.714q.645.715.645 1.751 0 1.037-.645 1.728-.645.69-1.89.69-1.243 0-1.888-.69-.622-.691-.622-1.728zM232.34 74.803l.116 2.765q2.741-3.225 7.394-3.225 5.23 0 7.118 4.008 1.244-1.797 3.225-2.903 2.004-1.105 4.723-1.105 8.2 0 8.339 8.684v16.701h-4.262V83.281q0-2.673-1.22-3.986-1.222-1.336-4.101-1.336-2.373 0-3.94 1.429-1.566 1.405-1.82 3.8v16.54h-4.284V83.396q0-5.437-5.321-5.437-4.193 0-5.736 3.57v18.2h-4.262V74.802h4.032zM285.092 99.728q-.368-.737-.598-2.626-2.972 3.087-7.095 3.087-3.686 0-6.059-2.073-2.35-2.097-2.35-5.299 0-3.893 2.949-6.035 2.972-2.165 8.339-2.165h4.146v-1.958q0-2.235-1.336-3.548-1.336-1.336-3.939-1.336-2.28 0-3.824 1.152-1.543 1.152-1.543 2.787h-4.285q0-1.866 1.313-3.593 1.336-1.751 3.594-2.765 2.28-1.013 4.999-1.013 4.307 0 6.75 2.165 2.44 2.142 2.533 5.92V93.9q0 3.432.875 5.46v.368h-4.469zm-7.072-3.248q2.005 0 3.801-1.037 1.797-1.036 2.603-2.695v-5.114h-3.34q-7.832 0-7.832 4.584 0 2.005 1.336 3.133 1.336 1.129 3.432 1.129zM300.043 99.728h-4.262V64.345h4.262v35.383zM323.17 99.728h-4.261V74.803h4.262v24.925zm-4.607-31.536q0-1.036.622-1.75.645-.715 1.89-.715 1.243 0 1.888.714.645.715.645 1.751 0 1.037-.645 1.728-.645.69-1.889.69t-1.889-.69q-.622-.691-.622-1.728zM333.974 74.803l.115 2.765q2.742-3.225 7.395-3.225 5.23 0 7.118 4.008 1.244-1.797 3.225-2.903 2.004-1.105 4.722-1.105 8.201 0 8.34 8.684v16.701h-4.262V83.281q0-2.673-1.221-3.986-1.221-1.336-4.1-1.336-2.373 0-3.94 1.429-1.566 1.405-1.82 3.8v16.54h-4.284V83.396q0-5.437-5.321-5.437-4.193 0-5.736 3.57v18.2h-4.262V74.802h4.031zM386.726 99.728q-.368-.737-.599-2.626-2.971 3.087-7.095 3.087-3.686 0-6.058-2.073-2.35-2.097-2.35-5.299 0-3.893 2.949-6.035 2.971-2.165 8.339-2.165h4.146v-1.958q0-2.235-1.336-3.548-1.336-1.336-3.94-1.336-2.28 0-3.823 1.152-1.543 1.152-1.543 2.787h-4.285q0-1.866 1.313-3.593 1.336-1.751 3.594-2.765 2.28-1.013 4.998-1.013 4.308 0 6.75 2.165 2.442 2.142 2.534 5.92V93.9q0 3.432.875 5.46v.368h-4.469zm-7.072-3.248q2.004 0 3.801-1.037 1.797-1.036 2.603-2.695v-5.114h-3.34q-7.832 0-7.832 4.584 0 2.005 1.336 3.133 1.336 1.129 3.432 1.129zM396.033 87.058q0-5.828 2.695-9.26 2.695-3.455 7.14-3.455 4.562 0 7.119 3.225l.207-2.765h3.893V99.13q0 4.838-2.88 7.625-2.856 2.787-7.693 2.787-2.695 0-5.275-1.151-2.58-1.152-3.94-3.156l2.212-2.557q2.741 3.386 6.703 3.386 3.11 0 4.838-1.75 1.75-1.752 1.75-4.93V97.24q-2.556 2.949-6.98 2.949-4.376 0-7.094-3.525-2.695-3.524-2.695-9.606zm4.284.484q0 4.216 1.728 6.634 1.728 2.396 4.837 2.396 4.032 0 5.92-3.663V81.53q-1.957-3.57-5.874-3.57-3.11 0-4.86 2.419-1.75 2.419-1.75 7.164zM433.834 100.189q-5.068 0-8.247-3.317-3.179-3.34-3.179-8.915v-.783q0-3.71 1.406-6.612 1.428-2.925 3.962-4.56 2.557-1.66 5.528-1.66 4.86 0 7.556 3.203 2.695 3.202 2.695 9.168v1.774H426.67q.092 3.685 2.142 5.966 2.074 2.257 5.253 2.257 2.257 0 3.823-.921 1.567-.921 2.742-2.442l2.603 2.027q-3.133 4.815-9.399 4.815zm-.53-22.345q-2.58 0-4.33 1.889-1.751 1.866-2.166 5.252h12.486v-.322q-.185-3.248-1.751-5.022-1.567-1.797-4.239-1.797zM470.507 100.189q-5.068 0-8.247-3.317-3.179-3.34-3.179-8.915v-.783q0-3.71 1.406-6.612 1.428-2.925 3.962-4.56 2.557-1.66 5.528-1.66 4.86 0 7.556 3.203 2.695 3.202 2.695 9.168v1.774h-16.885q.092 3.685 2.142 5.966 2.074 2.257 5.252 2.257 2.258 0 3.824-.921 1.567-.921 2.742-2.442l2.603 2.027q-3.133 4.815-9.399 4.815zm-.53-22.345q-2.58 0-4.33 1.889-1.751 1.866-2.166 5.252h12.486v-.322q-.185-3.248-1.751-5.022-1.567-1.797-4.239-1.797zM484.098 87.058q0-5.735 2.718-9.214 2.719-3.501 7.118-3.501 4.377 0 6.934 2.994V64.345h4.262v35.383h-3.916l-.208-2.672q-2.557 3.133-7.118 3.133-4.33 0-7.072-3.548-2.718-3.547-2.718-9.26v-.323zm4.262.484q0 4.239 1.75 6.634 1.751 2.396 4.838 2.396 4.054 0 5.92-3.64V81.485q-1.912-3.525-5.874-3.525-3.133 0-4.884 2.419-1.75 2.419-1.75 7.164zM516.394 99.728h-4.261V74.803h4.261v24.925zm-4.607-31.536q0-1.036.622-1.75.645-.715 1.889-.715t1.889.714q.645.715.645 1.751 0 1.037-.645 1.728-.645.69-1.889.69t-1.889-.69q-.622-.691-.622-1.728zM528.972 68.768v6.035h4.653v3.295h-4.653v15.456q0 1.498.622 2.258.622.737 2.119.737.737 0 2.027-.276v3.455q-1.681.46-3.27.46-2.857 0-4.309-1.727-1.45-1.728-1.45-4.907V78.098h-4.539v-3.295h4.538v-6.035h4.262zM536.988 87.035q0-3.662 1.428-6.588 1.452-2.925 4.009-4.515 2.58-1.59 5.874-1.59 5.09 0 8.224 3.525 3.155 3.525 3.155 9.376v.3q0 3.639-1.405 6.541-1.382 2.88-3.985 4.492-2.58 1.613-5.943 1.613-5.068 0-8.224-3.525-3.133-3.524-3.133-9.33v-.299zm4.285.507q0 4.147 1.912 6.657 1.935 2.511 5.16 2.511 3.248 0 5.16-2.534 1.912-2.557 1.912-7.14 0-4.101-1.958-6.635-1.935-2.557-5.16-2.557-3.156 0-5.091 2.511-1.935 2.51-1.935 7.187zM577.07 78.627q-.967-.16-2.096-.16-4.192 0-5.69 3.57v17.691h-4.261V74.803h4.146l.07 2.88q2.095-3.34 5.942-3.34 1.244 0 1.89.322v3.962z"/></g></g></svg>