<svg xmlns="http://www.w3.org/2000/svg" width="642.487" height="128.368" viewBox="0 0 602.33192 120.34509"><g fill="#343434"><g style="line-height:125%;-inkscape-font-specification:'roboto, Normal';text-align:start" font-weight="400" font-size="21.244" font-family="roboto" letter-spacing="0" word-spacing="0"><path d="M139.287 5.533l17.193 42.91 17.193-42.91h8.994v52.59h-6.935v-20.48l.65-22.105-17.265 42.586h-5.31l-17.23-42.477.687 21.997v20.48h-6.935V5.534h8.958zM202.352 58.124h-6.935V5.534h6.935v52.59zM255.412 58.124h-6.971l-26.476-40.527v40.527h-6.971V5.534h6.971l26.548 40.706V5.533h6.899v52.59zM275.17 58.124h-6.936V5.534h6.935v52.59zM296.77 5.533l17.192 42.91 17.193-42.91h8.994v52.59h-6.935v-20.48l.65-22.105L316.6 58.124h-5.31L294.06 15.647l.686 21.997v20.48h-6.935V5.534h8.958zM382.156 44.398h-22.033l-4.948 13.726h-7.152l20.083-52.59h6.068l20.118 52.59h-7.115l-5.02-13.726zm-19.938-5.707h17.88l-8.958-24.597-8.922 24.597zM439.767 51.225q-2.673 3.828-7.477 5.743-4.767 1.878-11.124 1.878-6.43 0-11.414-2.998-4.985-3.034-7.73-8.596-2.709-5.563-2.781-12.895V29.77q0-11.884 5.526-18.421 5.563-6.538 15.604-6.538 8.235 0 13.256 4.226 5.02 4.19 6.14 11.92h-6.935q-1.95-10.44-12.425-10.44-6.971 0-10.583 4.913-3.576 4.876-3.612 14.159v4.298q0 8.85 4.045 14.087 4.046 5.201 10.945 5.201 3.9 0 6.826-.867 2.926-.867 4.84-2.925V37.572h-12.172v-5.635h19.071v19.288zM481.088 33.815h-22.791v18.638h26.476v5.67h-33.411V5.534h33.05v5.707h-26.115v16.904h22.791v5.671zM492.502 54.62q0-1.734 1.012-2.89 1.047-1.155 3.106-1.155t3.106 1.155q1.084 1.156 1.084 2.89 0 1.662-1.084 2.781-1.047 1.12-3.106 1.12t-3.106-1.12q-1.012-1.12-1.012-2.781zM549.246 11.24h-16.904v46.884h-6.899V11.24h-16.868V5.533h40.671v5.707zM570.485 33.67l-6.43 6.683v17.77h-6.935V5.534h6.935V31.54l23.37-26.007h8.38l-20.697 23.225 22.322 29.366h-8.307L570.485 33.67z"/></g><path d="M3.543 3.543V116.33h102.694C86.969 98.601 84.212 73.45 84.417 60.116c.117-7.663.738-13.965-.224-18.393-.73-3.358-1.929-5.921-5.51-8.49-5.312 7.123-12.984 11.464-21.245 11.802-8.511.348-17.248-3.523-24.326-11.214-1.538 1.445-2.702 2.819-3.296 4.028-.995 2.029-1.156 3.84-.747 6.176.818 4.672 4.714 10.923 8.636 17.41 3.922 6.485 8.35 13.631 6.588 22.05-.882 4.208-3.564 8.141-7.612 11.227-4.048 3.085-9.461 5.585-16.77 7.827-2.916.94-6.03-.711-6.919-3.67-.89-2.958.79-6.079 3.73-6.935 6.542-2.006 10.85-4.164 13.352-6.07 2.502-1.907 3.197-3.298 3.486-4.674.576-2.753-1.493-7.817-5.219-13.978-3.726-6.162-8.63-12.999-10.075-21.258-.723-4.13-.382-8.745 1.72-13.028 2.102-4.283 5.762-8.074 10.968-11.457a5.451 5.451 0 0 1 7.43 1.439c5.883 8.317 12.678 11.295 18.612 11.053 5.934-.243 11.48-3.675 15.038-10.704a5.483 5.483 0 0 1 4.659-3.014 5.44 5.44 0 0 1 2.656.57c9.144 4.565 14.014 11.422 15.56 18.533 1.546 7.11.582 13.985.475 20.943-.195 12.73.914 27.865 20.945 44.409V3.543z"/><g style="line-height:125%;-inkscape-font-specification:'roboto, Normal';text-align:start" font-weight="400" font-size="47.177" font-family="roboto" letter-spacing="0" word-spacing="0"><path d="M138.526 70.663l11.67 29.125 11.67-29.125h6.104v35.695h-4.707v-13.9l.441-15.004-11.718 28.904h-3.604l-11.694-28.83.466 14.93v13.9h-4.708V70.663h6.08zM180.498 106.358h-4.536V79.832h4.536v26.526zm-4.903-33.562q0-1.104.661-1.864.687-.76 2.01-.76 1.325 0 2.011.76.687.76.687 1.864 0 1.103-.687 1.838-.686.736-2.01.736-1.324 0-2.01-.736-.662-.735-.662-1.838zM192.02 79.832l.147 3.334q3.04-3.825 7.943-3.825 8.41 0 8.483 9.488v17.529h-4.535V88.805q-.025-2.869-1.324-4.242-1.275-1.373-3.996-1.373-2.207 0-3.874 1.177-1.667 1.177-2.599 3.09v18.901h-4.535V79.832h4.29zM220.41 106.358h-4.536V79.832h4.536v26.526zm-4.904-33.562q0-1.104.662-1.864.687-.76 2.01-.76 1.325 0 2.011.76.686.76.686 1.864 0 1.103-.686 1.838-.686.736-2.01.736-1.324 0-2.01-.736-.663-.735-.663-1.838zM231.908 79.832l.122 2.942q2.918-3.433 7.87-3.433 5.565 0 7.575 4.266 1.324-1.912 3.432-3.089 2.133-1.177 5.026-1.177 8.728 0 8.875 9.243v17.774h-4.535V88.854q0-2.844-1.3-4.242-1.3-1.422-4.364-1.422-2.525 0-4.192 1.52-1.667 1.496-1.937 4.046v17.602h-4.56V88.976q0-5.786-5.663-5.786-4.462 0-6.104 3.8v19.368h-4.536V79.832h4.29zM288.05 106.358q-.393-.785-.638-2.795-3.163 3.285-7.551 3.285-3.923 0-6.448-2.206-2.5-2.231-2.5-5.639 0-4.143 3.138-6.423 3.162-2.304 8.874-2.304h4.413v-2.084q0-2.378-1.422-3.776-1.422-1.422-4.192-1.422-2.427 0-4.07 1.226-1.642 1.226-1.642 2.967h-4.56q0-1.986 1.397-3.825 1.422-1.863 3.825-2.942 2.427-1.079 5.32-1.079 4.584 0 7.183 2.305 2.599 2.28 2.697 6.3v12.21q0 3.652.931 5.81v.392h-4.756zm-7.527-3.457q2.133 0 4.045-1.103t2.77-2.868v-5.443h-3.555q-8.335 0-8.335 4.879 0 2.133 1.422 3.334t3.653 1.201zM303.96 106.358h-4.535V68.702h4.535v37.656zM328.574 106.358h-4.535V79.832h4.535v26.526zm-4.903-33.562q0-1.104.662-1.864.686-.76 2.01-.76 1.324 0 2.01.76.687.76.687 1.864 0 1.103-.687 1.838-.686.736-2.01.736-1.324 0-2.01-.736-.662-.735-.662-1.838zM340.072 79.832l.123 2.942q2.917-3.433 7.87-3.433 5.564 0 7.575 4.266 1.323-1.912 3.432-3.089 2.133-1.177 5.026-1.177 8.727 0 8.874 9.243v17.774h-4.535V88.854q0-2.844-1.3-4.242-1.299-1.422-4.363-1.422-2.525 0-4.193 1.52-1.667 1.496-1.936 4.046v17.602h-4.56V88.976q0-5.786-5.663-5.786-4.462 0-6.105 3.8v19.368h-4.535V79.832h4.29zM396.213 106.358q-.392-.785-.637-2.795-3.163 3.285-7.55 3.285-3.923 0-6.449-2.206-2.5-2.231-2.5-5.639 0-4.143 3.138-6.423 3.162-2.304 8.875-2.304h4.412v-2.084q0-2.378-1.421-3.776-1.422-1.422-4.193-1.422-2.427 0-4.07 1.226-1.642 1.226-1.642 2.967h-4.56q0-1.986 1.398-3.825 1.421-1.863 3.824-2.942 2.427-1.079 5.32-1.079 4.584 0 7.183 2.305 2.599 2.28 2.697 6.3v12.21q0 3.652.932 5.81v.392h-4.757zm-7.526-3.457q2.133 0 4.045-1.103t2.77-2.868v-5.443h-3.554q-8.336 0-8.336 4.879 0 2.133 1.422 3.334t3.653 1.201zM406.118 92.874q0-6.202 2.868-9.855 2.869-3.678 7.6-3.678 4.854 0 7.576 3.433l.22-2.942h4.143v25.889q0 5.148-3.064 8.114-3.04 2.967-8.188 2.967-2.869 0-5.615-1.226-2.745-1.226-4.192-3.359l2.354-2.721q2.917 3.604 7.134 3.604 3.31 0 5.148-1.863 1.863-1.864 1.863-5.247v-2.28q-2.72 3.138-7.428 3.138-4.658 0-7.55-3.75-2.87-3.752-2.87-10.224zm4.56.515q0 4.486 1.839 7.06 1.838 2.55 5.148 2.55 4.29 0 6.3-3.898v-12.11q-2.083-3.8-6.251-3.8-3.31 0-5.173 2.574t-1.863 7.624zM446.349 106.848q-5.394 0-8.777-3.53-3.383-3.555-3.383-9.488v-.833q0-3.947 1.495-7.036 1.52-3.114 4.217-4.854 2.721-1.766 5.884-1.766 5.173 0 8.04 3.408 2.87 3.408 2.87 9.757v1.888h-17.97q.097 3.923 2.279 6.35 2.206 2.402 5.59 2.402 2.402 0 4.07-.98 1.666-.98 2.917-2.599l2.77 2.157q-3.334 5.124-10.002 5.124zm-.564-23.78q-2.746 0-4.61 2.01-1.863 1.986-2.304 5.59h13.288v-.343q-.196-3.457-1.863-5.345-1.668-1.912-4.511-1.912zM485.378 106.848q-5.394 0-8.777-3.53-3.383-3.555-3.383-9.488v-.833q0-3.947 1.495-7.036 1.52-3.114 4.217-4.854 2.721-1.766 5.884-1.766 5.173 0 8.041 3.408 2.869 3.408 2.869 9.757v1.888h-17.97q.097 3.923 2.28 6.35 2.206 2.402 5.59 2.402 2.402 0 4.069-.98 1.667-.98 2.917-2.599l2.77 2.157q-3.334 5.124-10.002 5.124zm-.564-23.78q-2.746 0-4.609 2.01-1.863 1.986-2.304 5.59h13.287v-.343q-.196-3.457-1.863-5.345-1.667-1.912-4.511-1.912zM499.842 92.874q0-6.104 2.893-9.806 2.893-3.727 7.576-3.727 4.658 0 7.379 3.188V68.702h4.535v37.656h-4.167l-.221-2.844q-2.721 3.334-7.575 3.334-4.61 0-7.527-3.775-2.893-3.776-2.893-9.856v-.343zm4.536.515q0 4.511 1.863 7.06 1.863 2.55 5.148 2.55 4.315 0 6.3-3.873V86.94q-2.034-3.75-6.25-3.75-3.335 0-5.198 2.574-1.863 2.574-1.863 7.624zM534.214 106.358h-4.536V79.832h4.536v26.526zm-4.904-33.562q0-1.104.662-1.864.687-.76 2.01-.76 1.325 0 2.011.76.686.76.686 1.864 0 1.103-.686 1.838-.686.736-2.01.736-1.324 0-2.01-.736-.663-.735-.663-1.838zM547.6 73.409v6.423h4.952v3.506h-4.953v16.45q0 1.593.662 2.402.662.785 2.256.785.784 0 2.157-.294v3.677q-1.79.49-3.481.49-3.04 0-4.585-1.838-1.544-1.84-1.544-5.222v-16.45h-4.83v-3.506h4.83v-6.423h4.535zM556.13 92.85q0-3.898 1.52-7.012 1.545-3.113 4.267-4.805 2.745-1.692 6.251-1.692 5.418 0 8.752 3.751 3.36 3.751 3.36 9.978v.32q0 3.873-1.496 6.962-1.471 3.064-4.242 4.78-2.745 1.716-6.325 1.716-5.393 0-8.752-3.75-3.334-3.752-3.334-9.93v-.318zm4.56.54q0 4.412 2.036 7.084 2.059 2.672 5.491 2.672 3.457 0 5.492-2.696 2.035-2.722 2.035-7.6 0-4.364-2.084-7.06-2.06-2.722-5.492-2.722-3.358 0-5.418 2.672t-2.06 7.65zM598.789 83.901q-1.03-.171-2.231-.171-4.462 0-6.056 3.8v18.828h-4.535V79.832h4.413l.073 3.064q2.231-3.555 6.325-3.555 1.324 0 2.01.344V83.9z"/></g></g></svg>