<?xml version="1.0" encoding="UTF-8" standalone="no"?>
<!-- Created with Inkscape (http://www.inkscape.org/) -->

<svg
   xmlns:dc="http://purl.org/dc/elements/1.1/"
   xmlns:cc="http://creativecommons.org/ns#"
   xmlns:rdf="http://www.w3.org/1999/02/22-rdf-syntax-ns#"
   xmlns:svg="http://www.w3.org/2000/svg"
   xmlns="http://www.w3.org/2000/svg"
   xmlns:sodipodi="http://sodipodi.sourceforge.net/DTD/sodipodi-0.dtd"
   xmlns:inkscape="http://www.inkscape.org/namespaces/inkscape"
   width="169.99146mm"
   height="33.964062mm"
   viewBox="0 0 602.33192 120.34509"
   id="svg2"
   version="1.1"
   inkscape:version="0.91 r13725"
   sodipodi:docname="logo.svg">
  <defs
     id="defs4" />
  <sodipodi:namedview
     id="base"
     pagecolor="#ffffff"
     bordercolor="#666666"
     borderopacity="1.0"
     inkscape:pageopacity="0.0"
     inkscape:pageshadow="2"
     inkscape:zoom="0.98994949"
     inkscape:cx="282.32224"
     inkscape:cy="108.36613"
     inkscape:document-units="px"
     inkscape:current-layer="layer1"
     showgrid="false"
     showguides="true"
     inkscape:guide-bbox="true"
     inkscape:window-width="1301"
     inkscape:window-height="744"
     inkscape:window-x="65"
     inkscape:window-y="24"
     inkscape:window-maximized="1"
     fit-margin-top="1"
     fit-margin-left="1"
     fit-margin-right="1"
     fit-margin-bottom="1" />
  <metadata
     id="metadata7">
    <rdf:RDF>
      <cc:Work
         rdf:about="">
        <dc:format>image/svg+xml</dc:format>
        <dc:type
           rdf:resource="http://purl.org/dc/dcmitype/StillImage" />
        <dc:title></dc:title>
      </cc:Work>
    </rdf:RDF>
  </metadata>
  <g
     inkscape:label="Layer 1"
     inkscape:groupmode="layer"
     id="layer1"
     transform="translate(-255.56178,-203.83171)">
    <rect
       style="opacity:1;fill:#ffffff;fill-opacity:1;stroke:none;stroke-width:11.30000019;stroke-linecap:round;stroke-linejoin:round;stroke-miterlimit:4;stroke-dasharray:none;stroke-opacity:1"
       id="rect4920"
       width="705.08649"
       height="260.61935"
       x="223.23689"
       y="143.3595" />
    <g
       transform="matrix(3.4820368,0,0,3.4820368,-961.2055,-533.06271)"
       style="font-style:normal;font-variant:normal;font-weight:normal;font-stretch:normal;font-size:21.24426079px;line-height:125%;font-family:roboto;-inkscape-font-specification:'roboto, Normal';text-align:start;letter-spacing:0px;word-spacing:0px;writing-mode:lr-tb;text-anchor:start;fill:#343434;fill-opacity:1;stroke:none;stroke-width:1px;stroke-linecap:butt;stroke-linejoin:miter;stroke-opacity:1"
       id="flowRoot4158">
      <path
         d="m 389.4428,213.2165 4.93763,12.32333 4.93763,-12.32333 2.58292,0 0,15.10334 -1.99165,0 0,-5.88159 0.18672,-6.34838 -4.95838,12.22997 -1.52485,0 -4.94801,-12.19885 0.19709,6.31726 0,5.88159 -1.99165,0 0,-15.10334 2.57255,0 z"
         id="path4304"
         inkscape:connector-curvature="0" />
      <path
         d="m 407.55436,228.31984 -1.99165,0 0,-15.10334 1.99165,0 0,15.10334 z"
         id="path4306"
         inkscape:connector-curvature="0" />
      <path
         d="m 422.79256,228.31984 -2.00203,0 -7.60353,-11.6387 0,11.6387 -2.00203,0 0,-15.10334 2.00203,0 7.62428,11.69057 0,-11.69057 1.98128,0 0,15.10334 z"
         id="path4308"
         inkscape:connector-curvature="0" />
      <path
         d="m 428.46668,228.31984 -1.99165,0 0,-15.10334 1.99165,0 0,15.10334 z"
         id="path4310"
         inkscape:connector-curvature="0" />
      <path
         d="m 434.66984,213.2165 4.93763,12.32333 4.93763,-12.32333 2.58292,0 0,15.10334 -1.99165,0 0,-5.88159 0.18672,-6.34838 -4.95838,12.22997 -1.52485,0 -4.94801,-12.19885 0.19709,6.31726 0,5.88159 -1.99165,0 0,-15.10334 2.57255,0 z"
         id="path4312"
         inkscape:connector-curvature="0" />
      <path
         d="m 459.19203,224.37804 -6.32764,0 -1.42113,3.9418 -2.05388,0 5.76748,-15.10334 1.74269,0 5.77786,15.10334 -2.04351,0 -1.44187,-3.9418 z m -5.726,-1.63897 5.13472,0 -2.57254,-7.06413 -2.56218,7.06413 z"
         id="path4314"
         inkscape:connector-curvature="0" />
      <path
         d="m 475.73724,226.33857 q -0.76762,1.09955 -2.14725,1.64933 -1.36926,0.5394 -3.19494,0.5394 -1.84642,0 -3.27792,-0.86097 -1.4315,-0.87135 -2.21986,-2.46881 -0.77799,-1.59747 -0.79873,-3.70323 l 0,-1.31739 q 0,-3.41277 1.58709,-5.29032 1.59747,-1.87754 4.48121,-1.87754 2.36509,0 3.80696,1.21366 1.44187,1.20329 1.76344,3.42315 l -1.99165,0 q -0.56015,-2.99785 -3.56837,-2.99785 -2.00203,0 -3.03934,1.41075 -1.02695,1.40038 -1.03732,4.06628 l 0,1.23441 q 0,2.54143 1.16179,4.04554 1.1618,1.49374 3.14307,1.49374 1.12031,0 1.96053,-0.24896 0.84023,-0.24896 1.39001,-0.84023 l 0,-3.39202 -3.49576,0 0,-1.61822 5.47704,0 0,5.53928 z"
         id="path4316"
         inkscape:connector-curvature="0" />
      <path
         d="m 487.60415,221.3387 -6.54548,0 0,5.35255 7.60354,0 0,1.62859 -9.59519,0 0,-15.10334 9.49146,0 0,1.63896 -7.49981,0 0,4.85465 6.54548,0 0,1.62859 z"
         id="path4318"
         inkscape:connector-curvature="0" />
      <path
         d="m 490.88207,227.31364 q 0,-0.49791 0.29045,-0.82985 0.30082,-0.33194 0.8921,-0.33194 0.59127,0 0.89209,0.33194 0.31119,0.33194 0.31119,0.82985 0,0.47717 -0.31119,0.79874 -0.30082,0.32157 -0.89209,0.32157 -0.59128,0 -0.8921,-0.32157 -0.29045,-0.32157 -0.29045,-0.79874 z"
         id="path4320"
         inkscape:connector-curvature="0" />
      <path
         d="m 507.17833,214.85546 -4.85464,0 0,13.46438 -1.98128,0 0,-13.46438 -4.84427,0 0,-1.63896 11.68019,0 0,1.63896 z"
         id="path4322"
         inkscape:connector-curvature="0" />
      <path
         d="m 513.27776,221.2972 -1.84643,1.91904 0,5.1036 -1.99165,0 0,-15.10334 1.99165,0 0,7.46869 6.71144,-7.46869 2.40658,0 -5.94383,6.66995 6.41062,8.43339 -2.38583,0 -5.35255,-7.02264 z"
         id="path4324"
         inkscape:connector-curvature="0" />
    </g>
    <path
       style="opacity:1;fill:#343434;fill-opacity:1;stroke:none;stroke-width:6.80000019;stroke-miterlimit:4;stroke-dasharray:none;stroke-opacity:1"
       d="m 259.10509,207.37501 0,112.78571 102.69365,0 c -19.26748,-17.72795 -22.02517,-42.87866 -21.82062,-56.21278 0.11756,-7.6637 0.73904,-13.96495 -0.22377,-18.39344 -0.72999,-3.35766 -1.92855,-5.9208 -5.50873,-8.48987 -5.31288,7.12278 -12.98481,11.4644 -21.24604,11.80191 -8.51119,0.34772 -17.24769,-3.52306 -24.32563,-11.21383 -1.53843,1.44473 -2.70198,2.8186 -3.29574,4.02848 -0.9955,2.02845 -1.15595,3.84012 -0.74714,6.17584 0.81761,4.67144 4.71325,10.9225 8.6357,17.40883 3.92247,6.48631 8.35092,13.63225 6.58773,22.05027 -0.88161,4.20901 -3.56354,8.14205 -7.61173,11.22724 -4.04818,3.08517 -9.46145,5.58516 -16.77079,7.82706 -2.91549,0.94033 -6.02886,-0.71093 -6.91809,-3.66918 -0.88921,-2.95824 0.7896,-6.07945 3.73042,-6.93548 6.54177,-2.00649 10.85038,-4.16413 13.3518,-6.07048 2.50139,-1.90635 3.19712,-3.29784 3.48538,-4.67402 0.57649,-2.75237 -1.49231,-7.81611 -5.2186,-13.97802 -3.72629,-6.16191 -8.62949,-12.99833 -10.07499,-21.25723 -0.72276,-4.12944 -0.38205,-8.74483 1.71993,-13.02788 2.10199,-4.28305 5.76195,-8.07478 10.96815,-11.4571 2.46024,-1.59774 5.72866,-0.96488 7.42966,1.43861 5.88346,8.31675 12.67825,11.29533 18.61211,11.05291 5.93385,-0.24243 11.47965,-3.67444 15.03758,-10.70428 0.90137,-1.77981 2.6818,-2.93125 4.65919,-3.01322 0.91877,-0.0382 1.83234,0.15737 2.6567,0.56893 9.1431,4.5662 14.01309,11.42236 15.55907,18.53327 1.54599,7.1109 0.58271,13.98546 0.47598,20.94307 -0.19529,12.72955 0.91335,27.86543 20.94453,44.40898 l 0,-101.1543 z"
       id="rect4166"
       inkscape:connector-curvature="0"
       inkscape:export-filename="/home/renan/favicon.png"
       inkscape:export-xdpi="69.900002"
       inkscape:export-ydpi="69.900002"
       sodipodi:nodetypes="cccsscscssssscscsssssccscccssccc" />
    <g
       style="font-style:normal;font-variant:normal;font-weight:normal;font-stretch:normal;font-size:47.17718124px;line-height:125%;font-family:roboto;-inkscape-font-specification:'roboto, Normal';text-align:start;letter-spacing:0px;word-spacing:0px;writing-mode:lr-tb;text-anchor:start;fill:#343434;fill-opacity:1;stroke:none;stroke-width:1px;stroke-linecap:butt;stroke-linejoin:miter;stroke-opacity:1"
       id="text4262"
       transform="matrix(1.0642568,0,0,1.0642568,-35.546754,-16.631902)">
      <path
         d="m 403.69483,273.54902 10.96501,27.36645 10.96501,-27.36645 5.73589,0 0,33.54003 -4.42286,0 0,-13.06126 0.41465,-14.09787 -11.01108,27.15913 -3.38626,0 -10.98804,-27.09002 0.43768,14.02876 0,13.06126 -4.42286,0 0,-33.54003 5.71286,0 z"
         id="path4267"
         inkscape:connector-curvature="0" />
      <path
         d="m 443.132,307.08905 -4.26161,0 0,-24.92466 4.26161,0 0,24.92466 z m -4.60714,-31.53592 q 0,-1.03661 0.62196,-1.75071 0.645,-0.71411 1.88893,-0.71411 1.24393,0 1.88893,0.71411 0.645,0.7141 0.645,1.75071 0,1.03661 -0.645,1.72768 -0.645,0.69107 -1.88893,0.69107 -1.24393,0 -1.88893,-0.69107 -0.62196,-0.69107 -0.62196,-1.72768 z"
         id="path4269"
         inkscape:connector-curvature="0" />
      <path
         d="m 453.9588,282.16439 0.13821,3.13286 q 2.85643,-3.59358 7.46358,-3.59358 7.90126,0 7.97036,8.91483 l 0,16.47055 -4.26161,0 0,-16.49358 q -0.023,-2.69519 -1.24393,-3.98519 -1.19786,-1.29 -3.75482,-1.29 -2.07322,0 -3.63965,1.10572 -1.56643,1.10571 -2.44179,2.9025 l 0,17.76055 -4.26161,0 0,-24.92466 4.03126,0 z"
         id="path4271"
         inkscape:connector-curvature="0" />
      <path
         d="m 480.63418,307.08905 -4.26161,0 0,-24.92466 4.26161,0 0,24.92466 z m -4.60715,-31.53592 q 0,-1.03661 0.62196,-1.75071 0.64501,-0.71411 1.88893,-0.71411 1.24393,0 1.88894,0.71411 0.645,0.7141 0.645,1.75071 0,1.03661 -0.645,1.72768 -0.64501,0.69107 -1.88894,0.69107 -1.24392,0 -1.88893,-0.69107 -0.62196,-0.69107 -0.62196,-1.72768 z"
         id="path4273"
         inkscape:connector-curvature="0" />
      <path
         d="m 491.43793,282.16439 0.11518,2.76429 q 2.74125,-3.22501 7.39447,-3.22501 5.22911,0 7.11804,4.00822 1.24393,-1.79679 3.22501,-2.9025 2.0041,-1.10572 4.72232,-1.10572 8.20072,0 8.33894,8.68447 l 0,16.70091 -4.26161,0 0,-16.44751 q 0,-2.67215 -1.2209,-3.98518 -1.22089,-1.33608 -4.10036,-1.33608 -2.37268,0 -3.93911,1.42822 -1.56643,1.40518 -1.81982,3.80089 l 0,16.53966 -4.28465,0 0,-16.33233 q 0,-5.43644 -5.32125,-5.43644 -4.19251,0 -5.7359,3.57054 l 0,18.19823 -4.26161,0 0,-24.92466 4.03125,0 z"
         id="path4275"
         inkscape:connector-curvature="0" />
      <path
         d="m 544.18976,307.08905 q -0.36857,-0.73714 -0.59893,-2.62607 -2.97161,3.08678 -7.095,3.08678 -3.68572,0 -6.0584,-2.07321 -2.34965,-2.09625 -2.34965,-5.29822 0,-3.89304 2.94858,-6.03536 2.97161,-2.16536 8.33893,-2.16536 l 4.14644,0 0,-1.95804 q 0,-2.23446 -1.33608,-3.5475 -1.33607,-1.33607 -3.93911,-1.33607 -2.28054,0 -3.82393,1.15178 -1.54339,1.15179 -1.54339,2.78733 l -4.28465,0 q 0,-1.8659 1.31304,-3.59358 1.33607,-1.75071 3.59357,-2.76429 2.28054,-1.01357 4.99876,-1.01357 4.30768,0 6.74947,2.16536 2.44178,2.14232 2.53393,5.92018 l 0,11.4718 q 0,3.43232 0.87535,5.45947 l 0,0.36857 -4.46893,0 z m -7.07197,-3.24804 q 2.00411,0 3.8009,-1.03661 1.79678,-1.0366 2.60304,-2.69518 l 0,-5.11393 -3.34019,0 q -7.83215,0 -7.83215,4.58411 0,2.00411 1.33608,3.13286 1.33607,1.12875 3.43232,1.12875 z"
         id="path4277"
         inkscape:connector-curvature="0" />
      <path
         d="m 559.13996,307.08905 -4.26161,0 0,-35.38289 4.26161,0 0,35.38289 z"
         id="path4279"
         inkscape:connector-curvature="0" />
      <path
         d="m 582.26783,307.08905 -4.26161,0 0,-24.92466 4.26161,0 0,24.92466 z m -4.60715,-31.53592 q 0,-1.03661 0.62197,-1.75071 0.645,-0.71411 1.88893,-0.71411 1.24393,0 1.88893,0.71411 0.645,0.7141 0.645,1.75071 0,1.03661 -0.645,1.72768 -0.645,0.69107 -1.88893,0.69107 -1.24393,0 -1.88893,-0.69107 -0.62197,-0.69107 -0.62197,-1.72768 z"
         id="path4281"
         inkscape:connector-curvature="0" />
      <path
         d="m 593.0716,282.16439 0.11518,2.76429 q 2.74125,-3.22501 7.39447,-3.22501 5.22911,0 7.11804,4.00822 1.24393,-1.79679 3.225,-2.9025 2.00411,-1.10572 4.72233,-1.10572 8.20072,0 8.33893,8.68447 l 0,16.70091 -4.26161,0 0,-16.44751 q 0,-2.67215 -1.22089,-3.98518 -1.2209,-1.33608 -4.10036,-1.33608 -2.37268,0 -3.93911,1.42822 -1.56643,1.40518 -1.81983,3.80089 l 0,16.53966 -4.28464,0 0,-16.33233 q 0,-5.43644 -5.32126,-5.43644 -4.1925,0 -5.73589,3.57054 l 0,18.19823 -4.26161,0 0,-24.92466 4.03125,0 z"
         id="path4283"
         inkscape:connector-curvature="0" />
      <path
         d="m 645.82341,307.08905 q -0.36857,-0.73714 -0.59893,-2.62607 -2.97161,3.08678 -7.095,3.08678 -3.68572,0 -6.0584,-2.07321 -2.34964,-2.09625 -2.34964,-5.29822 0,-3.89304 2.94857,-6.03536 2.97161,-2.16536 8.33893,-2.16536 l 4.14644,0 0,-1.95804 q 0,-2.23446 -1.33608,-3.5475 -1.33607,-1.33607 -3.93911,-1.33607 -2.28053,0 -3.82393,1.15178 -1.54339,1.15179 -1.54339,2.78733 l -4.28465,0 q 0,-1.8659 1.31304,-3.59358 1.33607,-1.75071 3.59357,-2.76429 2.28054,-1.01357 4.99876,-1.01357 4.30768,0 6.74947,2.16536 2.44178,2.14232 2.53393,5.92018 l 0,11.4718 q 0,3.43232 0.87536,5.45947 l 0,0.36857 -4.46894,0 z m -7.07197,-3.24804 q 2.00411,0 3.8009,-1.03661 1.79679,-1.0366 2.60304,-2.69518 l 0,-5.11393 -3.34018,0 q -7.83215,0 -7.83215,4.58411 0,2.00411 1.33607,3.13286 1.33607,1.12875 3.43232,1.12875 z"
         id="path4285"
         inkscape:connector-curvature="0" />
      <path
         d="m 655.12986,294.4194 q 0,-5.82804 2.69518,-9.26037 2.69518,-3.45536 7.14107,-3.45536 4.56108,0 7.11805,3.22501 l 0.20732,-2.76429 3.89304,0 0,24.32573 q 0,4.83751 -2.87947,7.62483 -2.85643,2.78732 -7.69393,2.78732 -2.69519,0 -5.27519,-1.15178 -2.58,-1.15179 -3.93911,-3.1559 l 2.21143,-2.55697 q 2.74125,3.38626 6.7034,3.38626 3.10982,0 4.8375,-1.75072 1.75072,-1.75071 1.75072,-4.92965 l 0,-2.14232 q -2.55697,2.94857 -6.97983,2.94857 -4.37679,0 -7.095,-3.52446 -2.69518,-3.52447 -2.69518,-9.6059 z m 4.28464,0.48375 q 0,4.21554 1.72768,6.63429 1.72768,2.39571 4.83751,2.39571 4.03125,0 5.92018,-3.66268 l 0,-11.37965 q -1.95804,-3.57054 -5.87411,-3.57054 -3.10983,0 -4.86054,2.41875 -1.75072,2.41876 -1.75072,7.16412 z"
         id="path4287"
         inkscape:connector-curvature="0" />
      <path
         d="m 692.93148,307.54976 q -5.06786,0 -8.24679,-3.31714 -3.17893,-3.34018 -3.17893,-8.91483 l 0,-0.78321 q 0,-3.70876 1.40518,-6.61126 1.42821,-2.92554 3.96214,-4.56107 2.55697,-1.65858 5.52858,-1.65858 4.86054,0 7.55572,3.20197 2.69518,3.20197 2.69518,9.16822 l 0,1.77375 -16.88519,0 q 0.0921,3.68572 2.14232,5.96626 2.07322,2.2575 5.25215,2.2575 2.2575,0 3.82393,-0.92143 1.56643,-0.92143 2.74125,-2.44179 l 2.60304,2.02715 q -3.13286,4.81446 -9.39858,4.81446 z m -0.52982,-22.34466 q -2.58,0 -4.33072,1.88893 -1.75071,1.8659 -2.16536,5.25215 l 12.48537,0 0,-0.3225 q -0.18429,-3.24804 -1.75072,-5.02179 -1.56643,-1.79679 -4.23857,-1.79679 z"
         id="path4289"
         inkscape:connector-curvature="0" />
      <path
         d="m 729.60439,307.54976 q -5.06786,0 -8.24679,-3.31714 -3.17893,-3.34018 -3.17893,-8.91483 l 0,-0.78321 q 0,-3.70876 1.40518,-6.61126 1.42821,-2.92554 3.96215,-4.56107 2.55696,-1.65858 5.52857,-1.65858 4.86054,0 7.55572,3.20197 2.69518,3.20197 2.69518,9.16822 l 0,1.77375 -16.88519,0 q 0.0921,3.68572 2.14232,5.96626 2.07322,2.2575 5.25215,2.2575 2.2575,0 3.82393,-0.92143 1.56643,-0.92143 2.74125,-2.44179 l 2.60304,2.02715 q -3.13286,4.81446 -9.39858,4.81446 z m -0.52982,-22.34466 q -2.58,0 -4.33072,1.88893 -1.75071,1.8659 -2.16536,5.25215 l 12.48537,0 0,-0.3225 q -0.18428,-3.24804 -1.75071,-5.02179 -1.56643,-1.79679 -4.23858,-1.79679 z"
         id="path4291"
         inkscape:connector-curvature="0" />
      <path
         d="m 743.19547,294.4194 q 0,-5.7359 2.71822,-9.2143 2.71822,-3.50143 7.11804,-3.50143 4.37679,0 6.93376,2.99465 l 0,-12.99216 4.26161,0 0,35.38289 -3.91608,0 -0.20732,-2.67214 q -2.55696,3.13285 -7.11804,3.13285 -4.33072,0 -7.07197,-3.5475 -2.71822,-3.5475 -2.71822,-9.26036 l 0,-0.3225 z m 4.26162,0.48375 q 0,4.23857 1.75071,6.63429 1.75072,2.39571 4.8375,2.39571 4.05429,0 5.92019,-3.63964 l 0,-11.44876 q -1.91197,-3.52447 -5.87411,-3.52447 -3.13286,0 -4.88358,2.41875 -1.75071,2.41876 -1.75071,7.16412 z"
         id="path4293"
         inkscape:connector-curvature="0" />
      <path
         d="m 775.49157,307.08905 -4.26161,0 0,-24.92466 4.26161,0 0,24.92466 z m -4.60715,-31.53592 q 0,-1.03661 0.62197,-1.75071 0.645,-0.71411 1.88893,-0.71411 1.24393,0 1.88893,0.71411 0.645,0.7141 0.645,1.75071 0,1.03661 -0.645,1.72768 -0.645,0.69107 -1.88893,0.69107 -1.24393,0 -1.88893,-0.69107 -0.62197,-0.69107 -0.62197,-1.72768 z"
         id="path4295"
         inkscape:connector-curvature="0" />
      <path
         d="m 788.06907,276.12903 0,6.03536 4.65322,0 0,3.29411 -4.65322,0 0,15.45697 q 0,1.49733 0.62197,2.25751 0.62196,0.73714 2.11929,0.73714 0.73714,0 2.02714,-0.27643 l 0,3.45536 q -1.68161,0.46071 -3.27107,0.46071 -2.85643,0 -4.30768,-1.72768 -1.45126,-1.72768 -1.45126,-4.90661 l 0,-15.45697 -4.53804,0 0,-3.29411 4.53804,0 0,-6.03536 4.26161,0 z"
         id="path4297"
         inkscape:connector-curvature="0" />
      <path
         d="m 796.08551,294.39636 q 0,-3.66268 1.42821,-6.58822 1.45126,-2.92554 4.00822,-4.515 2.58,-1.58947 5.87411,-1.58947 5.0909,0 8.22376,3.52447 3.1559,3.52447 3.1559,9.37554 l 0,0.29947 q 0,3.63964 -1.40518,6.54215 -1.38215,2.87946 -3.98518,4.49196 -2.58001,1.6125 -5.94322,1.6125 -5.06787,0 -8.22376,-3.52446 -3.13286,-3.52447 -3.13286,-9.32947 l 0,-0.29947 z m 4.28465,0.50679 q 0,4.14643 1.91196,6.65732 1.935,2.5109 5.16001,2.5109 3.24803,0 5.16,-2.53393 1.91197,-2.55697 1.91197,-7.14108 0,-4.10036 -1.95804,-6.63429 -1.935,-2.55697 -5.16001,-2.55697 -3.15589,0 -5.09089,2.5109 -1.935,2.51089 -1.935,7.18715 z"
         id="path4299"
         inkscape:connector-curvature="0" />
      <path
         d="m 836.16768,285.98832 q -0.9675,-0.16125 -2.09625,-0.16125 -4.19251,0 -5.68983,3.57054 l 0,17.69144 -4.26161,0 0,-24.92466 4.14643,0 0.0691,2.87946 q 2.09625,-3.34018 5.94322,-3.34018 1.24393,0 1.88893,0.3225 l 0,3.96215 z"
         id="path4301"
         inkscape:connector-curvature="0" />
    </g>
  </g>
</svg>
