<svg xmlns="http://www.w3.org/2000/svg" height="20" width="20"><path d="M0 15.667v-1.542q0-.708.505-1.208t1.214-.5q.708 0 1.208.5t.5 1.208v1.542q0 .375.266.635.265.26.63.26h11.354q.365 0 .63-.26.266-.26.266-.635v-1.542q0-.708.5-1.208t1.208-.5q.709 0 1.214.5T20 14.125v1.542q0 1.791-1.266 3.062Q17.47 20 15.677 20H4.323q-1.792 0-3.057-1.27Q0 17.457 0 15.666zM3.302 8.01q0-.708.51-1.208.5-.5 1.209-.5.708 0 1.208.5l2.25 2.25V1.708Q8.48 1 8.98.5t1.209-.5q.708 0 1.213.5.505.5.505 1.208v7.344l2.354-2.354q.5-.5 1.209-.5.708 0 1.208.5.51.5.51 1.213 0 .714-.51 1.214l-5.27 5.27q-.522.522-1.22.522-.687 0-1.208-.521L3.813 9.229q-.51-.51-.51-1.219z"/></svg>