<svg xmlns="http://www.w3.org/2000/svg" width="681.411" height="429.866" viewBox="0 0 638.82249 402.99944"><g fill-rule="evenodd"><path style="isolation:auto;mix-blend-mode:normal" d="M71.576 183.186c-26.492 24.864-44.947 53.75-50.508 66.725-5.427 12.663-3.475 25.254 6.72 39.155 10.193 13.901 57.96 75.134 66.956 86.418 11.37 14.262 30.583 19.462 45.41 13.902 14.828-5.56 398.036-194.153 410.547-201.567 12.511-7.414 25.949-21.778 35.216-31.972 9.268-10.194 26.412-31.973 32.436-43.557 6.024-11.584-.463-24.559-8.804-32.9-8.34-8.34-80.163-58.384-91.747-63.481-11.585-5.097-25.95-6.024-37.07-1.854-11.12 4.17-391.996 153.025-409.156 169.13z" color="#000" overflow="visible" fill="#da502d"/><path d="M496.686 11.43c-5.602-.049-11.088.801-15.953 2.626-4.412 1.654-67.197 26.16-142.186 56.028 10.617-1.51 20.55.672 31.671 10.465 15.523 13.67 81.126 67.747 87.68 72.99 6.552 5.242 11.133 15.634 9.29 31.723-1.44 12.585-3.575 28.355-5.061 36.286-.94 5.014-2.503 9.775-5.257 13.231 51.659-25.559 90.022-44.703 93.83-46.96 12.512-7.414 25.95-21.778 35.217-31.972 9.267-10.195 26.412-31.972 32.436-43.557 6.024-11.584-.463-24.558-8.804-32.899-8.34-8.34-80.163-58.386-91.748-63.483-6.516-2.867-13.911-4.414-21.115-4.477z" fill="#6584a5"/><path style="isolation:auto;mix-blend-mode:normal" d="M606.892 129.832c-42.857 20.722-434.468 210.062-444.24 214.094-10.32 4.26-16.055 1.31-21.625-5.898S54.663 236.705 47.712 227.67c-3.788-4.924-4.751-8.953-4.584-12.914-5.158 6.728-9.58 13.144-13.159 18.847 1.155 3.284 3.08 6.645 5.39 9.243 5.243 5.898 85.19 102.228 90.432 108.617 5.243 6.39 12.78 16.71 29.49 8.027 16.345-8.493 418.417-201.488 436.18-210.014a382.107 382.107 0 0 0 15.431-19.643z" color="#000" overflow="visible" fill="#fff"/></g></svg>